AzmLib CornellBox.azm

## Object floor
v  -1.01  0.00   0.99
v   1.00  0.00   0.99
v   1.00  0.00  -1.04
v  -0.99  0.00  -1.04
vn 0 1 0

o floor
AzMtl floor
f -4//-1 -3//-1 -2//-1 -1//-1

## Object ceiling
v  -1.02  1.99   0.99
v  -1.02  1.99  -1.04
v   1.00  1.99  -1.04
v   1.00  1.99   0.99
vn 0 -1 0

o ceiling
AzMtl ceiling
f -4//-1 -3//-1 -2//-1 -1//-1

## Object backwall  
v  -0.99  0.00  -1.04 
v   1.00  0.00  -1.04
v   1.00  1.99  -1.04
v  -1.02  1.99  -1.04
vn 0 0 1

o backWall
AzMtl backWall
f -4//-1 -3//-1 -2//-1 -1//-1

## Object rightwall 
v	1.00  0.00  -1.04   
v	1.00  0.00   0.99
v	1.00  1.99   0.99
v	1.00  1.99  -1.04
vn -1 0 0

o rightWall
AzMtl rightWall
f -4//-1 -3//-1 -2//-1 -1//-1

## Object leftWall   
v  -1.01  0.00   0.99
v  -0.99  0.00  -1.04
v  -1.02  1.99  -1.04
v  -1.02  1.99   0.99
vn 1 0 0

o leftWall
AzMtl leftWall
f -4//-1 -3//-1 -2//-1 -1//-1

## Object light 
v	-0.30 1.98   0.30
v	-0.30 1.98  -0.30
v	 0.30  1.98 -0.30
v	 0.30  1.98  0.30

#o light
AzMtl light
f -4 -3 -2 -1