AzmLib Cornell.azm

## Object floor
v  -1.01  0.00   0.99
v   1.00  0.00   0.99
v   1.00  0.00  -1.04
v  -0.99  0.00  -1.04
vn 0 1 0

o floor
AzMtl floor
f -4//-1 -3//-1 -2//-1 -1//-1

## Object ceiling
v  -1.02  1.99   0.99
v  -1.02  1.99  -1.04
v   1.00  1.99  -1.04
v   1.00  1.99   0.99
vn 0 -1 0

o ceiling
AzMtl ceiling
f -4//-1 -3//-1 -2//-1 -1//-1

## Object backwall  
v  -0.99  0.00  -1.04 
v   1.00  0.00  -1.04
v   1.00  1.99  -1.04
v  -1.02  1.99  -1.04
vn 0 0 1

o backWall
AzMtl backWall
f -4//-1 -3//-1 -2//-1 -1//-1

## Object rightwall 
v	1.00  0.00  -1.04   
v	1.00  0.00   0.99
v	1.00  1.99   0.99
v	1.00  1.99  -1.04
vn -1 0 0

o rightWall
AzMtl rightWall
f -4//-1 -3//-1 -2//-1 -1//-1

## Object leftWall   
v  -1.01  0.00   0.99
v  -0.99  0.00  -1.04
v  -1.02  1.99  -1.04
v  -1.02  1.99   0.99
vn 1 0 0

o leftWall
AzMtl leftWall
f -4//-1 -3//-1 -2//-1 -1//-1

## Object shortBox 
o shortBox
AzMtl shortBox

# Top Face 
v	0.53  0.60   0.75 
v	0.70  0.60   0.17  
v	0.13  0.60   0.00
v  -0.05  0.60   0.57
vn 0 1 0
f -4//-1 -3//-1 -2//-1 -1//-1

# Left Face 
v  -0.05  0.00   0.57
v  -0.05  0.60   0.57
v   0.13  0.60   0.00 
v   0.13  0.00   0.00
f -4 -3 -2 -1

# Front Face
v	0.53  0.00   0.75
v	0.53  0.60   0.75
v  -0.05  0.60   0.57
v  -0.05  0.00   0.57
f -4 -3 -2 -1

# Right Face
v	0.70  0.00   0.17
v	0.70  0.60   0.17
v	0.53  0.60   0.75
v	0.53  0.00   0.75
f -4 -3 -2 -1

# Back Face
v	0.13  0.00   0.00
v	0.13  0.60   0.00
v	0.70  0.60   0.17
v	0.70  0.00   0.17
f -4 -3 -2 -1

## Object tallBox 
o tallBox
AzMtl tallBox

# Top Face
v	-0.53  1.20   0.09
v	 0.04  1.20  -0.09
v	-0.14  1.20  -0.67
v	-0.71  1.20  -0.49
f -4 -3 -2 -1

# Left Face
v	-0.53  0.00   0.09
v	-0.53  1.20   0.09
v	-0.71  1.20  -0.49
v	-0.71  0.00  -0.49
f -4 -3 -2 -1

# Back Face
v	-0.71  0.00  -0.49
v	-0.71  1.20  -0.49
v	-0.14  1.20  -0.67
v	-0.14  0.00  -0.67
f -4 -3 -2 -1

# Right Face
v	-0.14  0.00  -0.67
v	-0.14  1.20  -0.67
v	 0.04  1.20  -0.09
v	 0.04  0.00  -0.09
f -4 -3 -2 -1

# Front Face
v	 0.04  0.00  -0.09
v	 0.04  1.20  -0.09
v	-0.53  1.20   0.09
v	-0.53  0.00   0.09
f -4 -3 -2 -1


o tallBox
AzMtl tallBox

## Object light 
v	-0.30 1.98   0.30
v	-0.30 1.98  -0.30
v	 0.30  1.98 -0.30
v	 0.30  1.98  0.30

#o light
#AzMtl light
#f -4 -3 -2 -1